<?xml version="1.0" encoding="UTF-8" standalone="no"?>
<!-- Created with Inkscape (http://www.inkscape.org/) -->

<svg
   width="36.853001mm"
   height="36.853001mm"
   viewBox="0 0 36.853001 36.853001"
   version="1.1"
   id="svg5"
   xml:space="preserve"
   sodipodi:docname="discord.svg"
   inkscape:version="1.2.1 (9c6d41e410, 2022-07-14)"
   xmlns:inkscape="http://www.inkscape.org/namespaces/inkscape"
   xmlns:sodipodi="http://sodipodi.sourceforge.net/DTD/sodipodi-0.dtd"
   xmlns="http://www.w3.org/2000/svg"
   xmlns:svg="http://www.w3.org/2000/svg"><sodipodi:namedview
     id="namedview7"
     pagecolor="#ffffff"
     bordercolor="#000000"
     borderopacity="0.25"
     inkscape:showpageshadow="2"
     inkscape:pageopacity="0.0"
     inkscape:pagecheckerboard="0"
     inkscape:deskcolor="#d1d1d1"
     inkscape:document-units="mm"
     showgrid="false"
     inkscape:zoom="2.025849"
     inkscape:cx="63.923816"
     inkscape:cy="106.86877"
     inkscape:window-width="1920"
     inkscape:window-height="991"
     inkscape:window-x="-9"
     inkscape:window-y="-9"
     inkscape:window-maximized="1"
     inkscape:current-layer="layer1" /><defs
     id="defs2"><style
       id="style72">.cls-1{fill:#fff;}</style></defs><g
     inkscape:label="Layer 1"
     inkscape:groupmode="layer"
     id="layer1"
     transform="translate(-86.573502,-130.0735)"><rect
       style="fill:none;stroke-width:0.0923742"
       id="rect253"
       width="36.853001"
       height="36.853001"
       x="86.573502"
       y="130.0735" /><path
       class="cls-1"
       d="m 116.9398,137.88756 a 28.449499,27.820937 0 0 0 -7.09682,-2.13519 19.496633,19.065875 0 0 0 -0.90908,1.8071 26.428408,25.8445 0 0 0 -7.87604,0 19.580507,19.147896 0 0 0 -0.90908,-1.8071 28.649714,28.016729 0 0 0 -7.102235,2.14048 c -4.491314,6.49817 -5.708839,12.83494 -5.100076,19.08175 v 0 a 28.606425,27.974396 0 0 0 8.70395,4.27302 21.022597,20.558125 0 0 0 1.864167,-2.93952 18.511791,18.102792 0 0 1 -2.935589,-1.37054 c 0.246211,-0.17463 0.48701,-0.35453 0.719693,-0.52914 a 20.446301,19.994562 0 0 0 17.40249,0 c 0.2354,0.18786 0.4762,0.36777 0.7197,0.52914 a 18.582136,18.171583 0 0 1 -2.941,1.37319 20.833205,20.372917 0 0 0 1.86416,2.93687 28.476555,27.847396 0 0 0 8.70937,-4.27036 v 0 c 0.71428,-7.24431 -1.22023,-13.52287 -5.11361,-19.0897 z m -17.654116,15.24529 c -1.696417,0 -3.097924,-1.50548 -3.097924,-3.35756 0,-1.85209 1.352806,-3.37079 3.092514,-3.37079 1.739716,0 3.130396,1.5187 3.100626,3.37079 -0.0298,1.85208 -1.36632,3.35756 -3.095216,3.35756 z m 11.428506,0 c -1.69912,0 -3.09522,-1.50548 -3.09522,-3.35756 0,-1.85209 1.3528,-3.37079 3.09522,-3.37079 1.74242,0 3.12227,1.5187 3.09252,3.37079 -0.0298,1.85208 -1.36363,3.35756 -3.09252,3.35756 z"
       id="path76"
       style="fill:#ffffff;stroke-width:0.267555" /></g></svg>
