<?xml version="1.0" encoding="UTF-8" standalone="no"?>
<!-- Created with Inkscape (http://www.inkscape.org/) -->

<svg
    width="4.2333202mm"
    height="4.0358849mm"
    viewBox="0 0 4.2333202 4.0358849"
    version="1.1"
    id="svg5"
    xml:space="preserve"
    inkscape:version="1.2.1 (9c6d41e410, 2022-07-14)"
    sodipodi:docname="verified_test.svg"
    xmlns:inkscape="http://www.inkscape.org/namespaces/inkscape"
    xmlns:sodipodi="http://sodipodi.sourceforge.net/DTD/sodipodi-0.dtd"
    xmlns="http://www.w3.org/2000/svg"
    xmlns:svg="http://www.w3.org/2000/svg"><sodipodi:namedview
     id="namedview7"
     pagecolor="#ffffff"
     bordercolor="#000000"
     borderopacity="0.25"
     inkscape:showpageshadow="2"
     inkscape:pageopacity="0.0"
     inkscape:pagecheckerboard="0"
     inkscape:deskcolor="#d1d1d1"
     inkscape:document-units="mm"
     showgrid="false"
     inkscape:zoom="5.7299663"
     inkscape:cx="-44.59014"
     inkscape:cy="-8.289752"
     inkscape:window-width="1920"
     inkscape:window-height="991"
     inkscape:window-x="-9"
     inkscape:window-y="-9"
     inkscape:window-maximized="1"
     inkscape:current-layer="layer1" /><defs
     id="defs2" /><g
     inkscape:label="Layer 1"
     inkscape:groupmode="layer"
     id="layer1"
     transform="translate(-102.88334,-146.48205)"><path
       fill="hsla(228, 6%, 32.5%, 1)"
       fill-rule="evenodd"
       d="m 107.11666,148.50487 c 0,0.20902 -0.33866,0.36513 -0.40216,0.55298 -0.0635,0.18785 0.11642,0.52917 0,0.68527 -0.11642,0.1561 -0.48683,0.0926 -0.65087,0.21167 -0.16404,0.11906 -0.20902,0.48683 -0.40746,0.55298 -0.19845,0.0661 -0.44185,-0.21167 -0.65352,-0.21167 -0.21167,0 -0.46302,0.26458 -0.65352,0.21167 -0.1905,-0.0529 -0.24342,-0.43392 -0.40746,-0.55298 -0.16404,-0.11907 -0.52917,-0.0476 -0.65088,-0.21167 -0.12171,-0.16404 0.0609,-0.48683 0,-0.68527 -0.0609,-0.19844 -0.40745,-0.34396 -0.40745,-0.55298 0,-0.20902 0.33866,-0.36512 0.40215,-0.55298 0.0635,-0.18785 -0.11641,-0.52917 0,-0.68527 0.11643,-0.1561 0.48948,-0.0926 0.65618,-0.21167 0.16669,-0.11906 0.20637,-0.48683 0.4048,-0.56091 0.19845,-0.0741 0.44187,0.2196 0.65353,0.2196 0.21166,0 0.46302,-0.26458 0.65352,-0.21167 0.1905,0.0529 0.24076,0.43392 0.40482,0.55298 0.16404,0.11907 0.52916,0.0476 0.65086,0.21167 0.12171,0.16404 -0.0609,0.48683 0,0.68527 0.0609,0.19844 0.40746,0.34396 0.40746,0.55298 z"
       id="path59"
       style="stroke-width:0.264583" /><path
       d="m 104.84126,149.44853 -0.89959,-0.67469 0.26459,-0.35983 0.52916,0.40481 0.96308,-1.26735 0.35984,0.26458 z"
       fill="#f2f3f5"
       id="path176"
       style="stroke-width:0.264583" /></g></svg>