<?xml version="1.0" encoding="UTF-8" standalone="no"?>
<svg
   version="1.1"
   width="1080"
   height="1080"
   viewBox="0 0 1080 1080"
   xml:space="preserve"
   id="svg38"
   sodipodi:docname="game.svg"
   inkscape:export-filename="C:\Users\Maxan\OneDrive\Documents\Code\Neptune [Svelte]\public\covers\game.png"
   inkscape:export-xdpi="96"
   inkscape:export-ydpi="96"
   inkscape:version="1.1.1 (3bf5ae0d25, 2021-09-20)"
   xmlns:inkscape="http://www.inkscape.org/namespaces/inkscape"
   xmlns:sodipodi="http://sodipodi.sourceforge.net/DTD/sodipodi-0.dtd"
   xmlns="http://www.w3.org/2000/svg"
   xmlns:svg="http://www.w3.org/2000/svg"><sodipodi:namedview
   id="namedview40"
   pagecolor="#ffffff"
   bordercolor="#666666"
   borderopacity="1.0"
   inkscape:pageshadow="2"
   inkscape:pageopacity="0.0"
   inkscape:pagecheckerboard="0"
   showgrid="false"
   inkscape:zoom="0.53949629"
   inkscape:cx="785.91829"
   inkscape:cy="681.19097"
   inkscape:window-width="1920"
   inkscape:window-height="1013"
   inkscape:window-x="-9"
   inkscape:window-y="-9"
   inkscape:window-maximized="1"
   inkscape:current-layer="g34" />
<desc
   id="desc2">Created with Fabric.js 4.2.0</desc>
<defs
   id="defs4">
</defs>

<g
   transform="matrix(1 0 0 1 540 540)"
   id="00682b2e-1680-4448-98dd-496052d16f9d">
</g>
<g
   transform="matrix(39.046213,0,0,39.046213,540,540)"
   id="g36">
<g
   vector-effect="non-scaling-stroke"
   id="g34">
		<g
   transform="matrix(0.6,0,0,0.6,0.13,0)"
   id="g12"
   style="fill:#cccccc">
<path
   style="opacity:1;fill:#cccccc;fill-opacity:0.8;fill-rule:evenodd;stroke:none;stroke-width:1;stroke-linecap:butt;stroke-linejoin:miter;stroke-miterlimit:4;stroke-dasharray:none;stroke-dashoffset:0"
   vector-effect="non-scaling-stroke"
   transform="translate(-20.22,-20)"
   d="M 21.226,30 V 25.846 H 17.471 V 30 Z m -0.512,-8.62 c 3.67,-1.337 5.718,-2.959 5.718,-6.145 C 26.432,11.963 24.072,10 20.344,10 17.755,10 15.707,10.825 14,12.048 l 0.484,3.3 c 1.621,-1.251 3.47,-2.162 5.49,-2.162 1.707,0 2.845,0.854 2.845,2.305 0,1.593 -1.08,2.475 -3.812,3.442 l -0.882,0.342 0.342,4.523 2.076,-0.455 z"
   stroke-linecap="round"
   id="path10" />
</g>
		<g
   transform="scale(0.6)"
   id="g16"
   style="stroke:#5b5b5b;stroke-opacity:0.40000001">
<rect
   style="opacity:1;fill:none;fill-rule:evenodd;stroke:#5b5b5b;stroke-width:2;stroke-linecap:butt;stroke-linejoin:miter;stroke-miterlimit:4;stroke-dasharray:none;stroke-dashoffset:0;stroke-opacity:0.40000001"
   vector-effect="non-scaling-stroke"
   x="-19"
   y="-19"
   rx="5"
   ry="5"
   width="38.000015"
   height="38"
   id="rect14" />
</g>
		<g
   transform="matrix(0.6,0,0,0.6,-7.8,-7.8)"
   id="g20"
   style="fill:#999999;fill-opacity:0.40000001">
<circle
   style="opacity:1;fill:#999999;fill-opacity:0.40000001;fill-rule:evenodd;stroke:none;stroke-width:1;stroke-linecap:butt;stroke-linejoin:miter;stroke-miterlimit:4;stroke-dasharray:none;stroke-dashoffset:0"
   vector-effect="non-scaling-stroke"
   cx="0"
   cy="0"
   r="2"
   id="circle18" />
</g>
		<g
   transform="matrix(0.6,0,0,0.6,-7.8,7.8)"
   id="g24"
   style="fill:#999999;fill-opacity:0.40000001">
<circle
   style="opacity:1;fill:#999999;fill-opacity:0.40000001;fill-rule:evenodd;stroke:none;stroke-width:1;stroke-linecap:butt;stroke-linejoin:miter;stroke-miterlimit:4;stroke-dasharray:none;stroke-dashoffset:0"
   vector-effect="non-scaling-stroke"
   cx="0"
   cy="0"
   r="2"
   id="circle22" />
</g>
		<g
   transform="matrix(0.6,0,0,0.6,7.8,-7.8)"
   id="g28"
   style="fill:#999999;fill-opacity:0.40000001">
<circle
   style="opacity:1;fill:#999999;fill-opacity:0.40000001;fill-rule:evenodd;stroke:none;stroke-width:1;stroke-linecap:butt;stroke-linejoin:miter;stroke-miterlimit:4;stroke-dasharray:none;stroke-dashoffset:0"
   vector-effect="non-scaling-stroke"
   cx="0"
   cy="0"
   r="2"
   id="circle26" />
</g>
		<g
   transform="matrix(0.6,0,0,0.6,7.8,7.8)"
   id="g32"
   style="fill:#999999;fill-opacity:0.40000001">
<circle
   style="opacity:1;fill:#999999;fill-opacity:0.40000001;fill-rule:evenodd;stroke:none;stroke-width:1;stroke-linecap:butt;stroke-linejoin:miter;stroke-miterlimit:4;stroke-dasharray:none;stroke-dashoffset:0"
   vector-effect="non-scaling-stroke"
   cx="0"
   cy="0"
   r="2"
   id="circle30" />
</g>
</g>
</g>
</svg>
