<svg width="81" height="81" viewBox="0 0 81 81" fill="none" xmlns="http://www.w3.org/2000/svg">
<g clip-path="url(#clip0_99_122)">
<mask id="mask0_99_122" style="mask-type:luminance" maskUnits="userSpaceOnUse" x="0" y="0" width="81" height="81">
<path d="M80.2856 40.5135C80.2856 18.4222 62.377 0.51355 40.2856 0.51355C18.1943 0.51355 0.285645 18.4222 0.285645 40.5135C0.285645 62.6049 18.1943 80.5135 40.2856 80.5135C62.377 80.5135 80.2856 62.6049 80.2856 40.5135Z" fill="white"/>
<path d="M60.2856 30.5135H20.2856C14.7628 30.5135 10.2856 34.9907 10.2856 40.5135C10.2856 46.0364 14.7628 50.5135 20.2856 50.5135H60.2856C65.8085 50.5135 70.2856 46.0364 70.2856 40.5135C70.2856 34.9907 65.8085 30.5135 60.2856 30.5135Z" fill="black"/>
</mask>
<g mask="url(#mask0_99_122)">
<path d="M80.2856 0.51355H0.285645V80.5135H80.2856V0.51355Z" fill="#F23F43"/>
</g>
</g>
<defs>
<clipPath id="clip0_99_122">
<rect width="80" height="80" fill="white" transform="translate(0.285645 0.51355)"/>
</clipPath>
</defs>
</svg>
