<svg width="81" height="81" viewBox="0 0 81 81" fill="none" xmlns="http://www.w3.org/2000/svg">
<mask id="mask0_99_132" style="mask-type:luminance" maskUnits="userSpaceOnUse" x="0" y="0" width="81" height="81">
<path d="M80.2856 40.5135C80.2856 18.4222 62.377 0.51355 40.2856 0.51355C18.1942 0.51355 0.285583 18.4222 0.285583 40.5135C0.285583 62.6049 18.1942 80.5135 40.2856 80.5135C62.377 80.5135 80.2856 62.6049 80.2856 40.5135Z" fill="white"/>
<path d="M60.2856 40.5135C60.2856 29.4679 51.3313 20.5135 40.2856 20.5135C29.2399 20.5135 20.2856 29.4679 20.2856 40.5135C20.2856 51.5592 29.2399 60.5135 40.2856 60.5135C51.3313 60.5135 60.2856 51.5592 60.2856 40.5135Z" fill="black"/>
</mask>
<g mask="url(#mask0_99_132)">
<path d="M80.2856 0.51355H0.285583V80.5135H80.2856V0.51355Z" fill="#80848E"/>
</g>
</svg>
