<svg width="81" height="81" viewBox="0 0 81 81" fill="none" xmlns="http://www.w3.org/2000/svg">
<g clip-path="url(#clip0_164_358)">
<path d="M80.2856 40.5135C80.2856 51.1222 76.0713 61.2964 68.5699 68.7978C61.0684 76.2993 50.8942 80.5135 40.2856 80.5135C29.6769 80.5135 19.5028 76.2993 12.0013 68.7978C4.49986 61.2964 0.285584 51.1222 0.285583 40.5135C0.285584 29.9049 4.49986 19.7307 12.0013 12.2293C19.5028 4.72782 29.6769 0.51355 40.2856 0.51355C50.8942 0.51355 61.0684 4.72782 68.5699 12.2293C76.0713 19.7307 80.2856 29.9049 80.2856 40.5135ZM61.9522 40.5135L26.9522 20.5135V60.5135L61.9522 40.5135Z" fill="#593695"/>
</g>
<defs>
<clipPath id="clip0_164_358">
<rect width="80" height="80" fill="white" transform="translate(0.285583 0.51355)"/>
</clipPath>
</defs>
</svg>
